<?xml version="1.0" encoding="UTF-8"?>
<svg xmlns="http://www.w3.org/2000/svg" xmlns:xlink="http://www.w3.org/1999/xlink" width="24px" height="24px" viewBox="0 0 24 24" version="1.1" >
<g id="surface1">
<path style=" stroke:none;fill-rule:nonzero;fill:white;fill-opacity:1;" d="M 11.632812 0.125 C 11.550781 0.167969 11.441406 0.257812 11.394531 0.324219 C 11.347656 0.390625 10.570312 2.03125 9.660156 3.960938 L 8.011719 7.476562 L 4.261719 8.054688 C 0.121094 8.679688 0.257812 8.648438 0.0898438 9.019531 C -0.0195312 9.253906 -0.0234375 9.417969 0.0703125 9.632812 C 0.125 9.777344 2.085938 11.820312 4.832031 14.601562 L 5.578125 15.351562 L 4.945312 19.21875 C 4.597656 21.347656 4.3125 23.171875 4.3125 23.277344 C 4.3125 23.808594 4.90625 24.148438 5.394531 23.90625 C 5.507812 23.851562 7.03125 23.011719 8.78125 22.046875 C 10.636719 21.019531 11.996094 20.296875 12.042969 20.3125 C 12.085938 20.320312 13.53125 21.113281 15.257812 22.0625 C 19.101562 24.1875 18.765625 24.015625 19.023438 23.984375 C 19.386719 23.945312 19.6875 23.625 19.6875 23.277344 C 19.6875 23.171875 19.402344 21.347656 19.054688 19.21875 L 18.421875 15.351562 L 19.167969 14.601562 C 21.726562 12.007812 23.875 9.773438 23.933594 9.632812 C 24.023438 9.417969 24.015625 9.25 23.910156 9.019531 C 23.742188 8.648438 23.878906 8.679688 19.738281 8.046875 L 15.988281 7.476562 L 14.339844 3.960938 C 13.429688 2.023438 12.652344 0.390625 12.605469 0.324219 C 12.425781 0.0664062 11.953125 -0.03125 11.632812 0.125 Z M 13.453125 5.605469 C 14.65625 8.171875 14.898438 8.648438 15.027344 8.75 C 15.171875 8.859375 15.417969 8.90625 18.359375 9.355469 C 20.109375 9.625 21.566406 9.84375 21.601562 9.84375 C 21.636719 9.84375 21.65625 9.863281 21.648438 9.886719 C 21.640625 9.910156 20.601562 10.988281 19.335938 12.28125 C 18.074219 13.574219 17 14.699219 16.960938 14.785156 C 16.917969 14.863281 16.878906 14.984375 16.875 15.050781 C 16.875 15.121094 17.117188 16.660156 17.414062 18.472656 C 17.710938 20.289062 17.949219 21.78125 17.945312 21.796875 C 17.933594 21.816406 16.65625 21.117188 15.09375 20.253906 C 12.328125 18.722656 12.253906 18.679688 12 18.679688 C 11.75 18.683594 11.664062 18.726562 8.90625 20.253906 C 7.34375 21.121094 6.066406 21.816406 6.054688 21.800781 C 6.050781 21.78125 6.289062 20.289062 6.585938 18.472656 C 6.882812 16.660156 7.125 15.121094 7.125 15.050781 C 7.121094 14.984375 7.082031 14.863281 7.039062 14.785156 C 7 14.699219 5.929688 13.574219 4.664062 12.28125 C 3.402344 10.988281 2.363281 9.914062 2.351562 9.894531 C 2.347656 9.875 2.570312 9.824219 2.84375 9.78125 C 3.125 9.742188 4.53125 9.523438 5.976562 9.304688 C 7.421875 9.085938 8.65625 8.890625 8.734375 8.878906 C 9.03125 8.816406 9.113281 8.671875 10.570312 5.5625 C 11.339844 3.921875 11.980469 2.578125 12 2.578125 C 12.015625 2.578125 12.671875 3.941406 13.453125 5.605469 Z M 13.453125 5.605469 "/>
</g>
</svg>
